<?xml version="1.0"?>
    
<!--********* Copyright (c) 2024 Pareto Softare, LLC DBA Simplemaps.com ***************************************
************* Free for Commercial Use, full terms at  https://simplemaps.com/resources/svg-license ************
************* Attribution is appreciated! https://simplemaps.com *******************************************-->

<svg baseprofile="tiny" fill="#6f9c76" height="651" stroke="#ffffff" stroke-linecap="round" stroke-linejoin="round" stroke-width=".5" version="1.2" viewbox="0 0 1000 651" width="1000" xmlns="http://www.w3.org/2000/svg">
 <g id="features">
  <path d="M882.4 431.7l0.2 0.7-1.2 4.4-0.5 0.8-0.8 0.2-1.4-0.4-1-0.5-1.1-0.8-0.6-1 0.9-1 1.3-0.1 0.9-0.5 2-1.4 1.3-0.4z m-43.8-17.3l-1.1-0.1-4.7 0.5-7.5 2.3-2.3 0.2-2.2-0.2-2.1-1.5-1-2.9-0.7-3.3-1.4-2.3-1.2-0.5-1 0.2-1 0.3-1.1 0.1-1.1-0.4-2.7-1.1 0.7-2.5-0.1-0.2-0.5-0.6-0.1-0.1 0.1 0-0.7-1-0.1-0.2-0.1-0.3-0.1-1.5 0.8-1.3 1.6-1 3.6-0.9 0.6-0.2 0.5-0.7 1.3-2.2 0.7-0.7 0.7-0.3 0.8-0.3 0.8-0.3 0.7-0.6 1.8-2.3 3.3-2.7 0.7-0.7 0.8-0.6 0.4-0.2 0.9-0.2 0.2-0.3 0.1-0.3 0.2-0.3 0.8-0.5 0-0.1 0.1-0.5 0.5-2.4-2.1-1.2-4.8-1.1-0.8-1.1-0.2-1.2 0.5-0.9 1.1-0.1 1.8 1.6 1.1 0.4 0.1-1.3-0.4-0.6-9.7-10.9-1.7-1.5-0.1-0.2-0.2-0.3-1-1.1-0.6-0.7-2.4-1-2 0.6-1.5 7.4-2.9 3.4-3.8 2.3-5.5 2.2-5 3.9-9.8 3-1.1 0.6-1.1 0.9-2.2 2.8-1.3 1.2-1.4 0.4-1.6-0.6-0.7-0.6-0.5-0.7-1-1.7-0.6-0.7-1.3-0.9-0.7-0.5-2-3.3-1.2-1.1-1.7-0.2-0.8-0.5-0.7-0.7-0.7-0.5-1-0.2-1.7 0.6-0.8 0.5-0.8 0.6-1.3 1.8-0.8 1.8-0.4 2.1 0 2.5 0.3 3.8-0.2 0.9-0.8 0.5-3.2 0.2-1.9 1.3 0 1.5 2.1 3.6 1.2 3.9 0.5 1.3 1.4 2.4 0.5 1.4 0.4 1.5-0.4 3.4-1.7 0.3-2.1-0.8-1.3 0.2 0.2 2 3.8 3.5 0 1.7-2 0.9-2.6-0.1-4.8-1.4-1.8-1-1.7-0.8-1.2-0.2-8.6 1.3-1 0.5-1.9 1-1.2 0.2-3.1-0.5-1.1 0.1-3 0.7-2.1 0.6-1.1 0.8 1.3 1.5 2.4 1.5 1.9 0.7 0.5-0.1 12.4-2.4 2.4 1.8 0.4 1 0.1 1 0 1-0.5 0.9-1.2 0.2-3.8-0.6-1.1 0.3-1.9 1.6-0.7 0.3-1.2-2.2-0.8-0.7-0.7 1.3 0.1 0.6 1 0.8 0.1 0.5-0.1 1.4 0.1 0.7 0.3 0.7 4.6 6.4 0.2 1.6-2.2 0.9-1.2-1.9-0.9-3-1-2.3-1.1-0.8-0.4 0.5 0.2 1.3 0.5 1.5 1.2 2.5 0 1-0.7 1.3-0.2 0.2-0.5 0.1-0.2 0.1-0.4 1 0 0.1 0 0.4-0.1 0.7-0.4 0.4-0.7-0.4-1.4-2.3-0.8-0.6-1.8 1.6-0.8-0.3-0.6-0.1-0.5 1.5-0.5 11.1-0.3 1.7-0.7 1.3-1.3 1.4-2.3 1.4-0.7 1 0.2 0.5 0.4 0.8 0 0.1-1.1 0.4-3.2 0.9-2.6 0.3-2.6-0.2-4.4-1.6-7.9-0.2-18.1-4.7-2.5-0.1-1.9 0.6-5 3.6-4.2 0.6-1 1.1 0.3 3-0.1 0.3-0.3 0.2-0.2 0.1-0.3 0-1.3-0.1-0.8 0.1-0.5 0.6-0.7 2.6-0.3 2.8-0.1 2.5-0.7 2.3-0.4 2.3-0.3 0.1-0.5-0.1-0.6 0.1-0.5 0.5-0.2 0.3-0.1 0.5-0.1 0.9 0.4 2.7 0 0.1 1.5 1.4 6.4 2.2 4.3 0.2 2.1 0.8 0.2 0.3 0.4 0.8 0.3 0.3 0.4 0.1 0.9-0.2 0.3 0.1 0.5 0.8 0.1 0.9-0.6 5.3 0.2 1.7 0.1 0.1 0.9 0.9 6.8 1.1 1.4-0.1 4-1.3 0.7-0.4 0.8-0.2 0.7 0 0.9 0.3 0.5 0.3 0.8 0.8 0.8 0.1 0.9-0.3 0.9-0.6 0.4-0.1 0.4-0.1 0.5 0.1 0.4 0.1 0.8 1 1.8 3.9 1 1.5 0.6 0.8 0.5 1.4-0.1 1.5-0.4 1.1-0.7 0.9-0.8 0.8-0.9 0.5-1.3 0.2-0.9 0-0.6 0.4-0.2 1.5 0.2 0.6 0.3 0.6 0.2 0.7 0 0.7-0.3 0.4-1.3 1-0.4 1 0.1 1.3 0.7 2.5 0.1 1.4-0.1 3.9 0.1 1.4 0.4 0.9 1.3 2 0.3 1 0.1 2.2 0.2 1 0.5 0.9 2.1 2 1.9 3.6 0.9 0.9 2.8 1.6 4.2 3.8 1.2 2 0.3 2.6-0.9 3.9-1.3 3.8-2.1 3.1-0.6 1.3-0.4 1.2-0.2 1-0.4 0.8-0.6 0.5-0.3 0.1-0.8 0.3-2.5 0.3-1.6 0.6-0.9 1-2.3 6.8-1.6 3.1-3.8 5.4-2.9 2.7-2.7 3.5-2.3 3.9-1.4 4.1-0.2 2.8 1 5.3 0.2 2.8-0.3 2.4-0.6 2.2-1 2-0.2 1-0.3-1.2-0.6-0.9-0.9-0.6-1.1-0.3-1.9 0.1-0.7-0.1-0.6-0.3-1.1-0.8-0.6-0.2-0.6 0-1 0.3-0.6 0.1-0.3 0.3-0.3 0.7-0.5 0.6-0.5 0.2-0.9-0.7-1-2.8-1.2-0.6-1.1 0.3-1 0.8-1.7 1.7-1.1 0.8-1 0.6-1.2 0.3-1.3 0.1-1.3 0.3-2.1 1.3-1.1 0.2-1.2-0.4-0.6-1.1-0.4-1.2-0.5-1.1-1.1-1-2.4-0.9-1-0.7-0.5-1-0.9-2.9-0.6-0.6-1.2-0.3-2.1-1.6-0.9-0.4-2.6-0.1-4.9 1.2-6.9 0.3-0.5 0.2-1.1 0.9-0.5 0.2-1.5 0-0.6-0.2-3.5-1.5-1.3-0.1-1.4 0.1-1 0.3-1.3-1 0.1-1.2 0.8-1.1 1-1.1 0.8-1.3-0.2-1.1-0.8-0.9-1-0.9-0.8-1.9 0.2-2.4 1.2-4.5 0.2-2.6-0.4-5.3 0.2-2.6 1.8-3.3 3-3.9 1.9-3.8-0.5-1.4-0.6-1.8-0.1 0-1.7-1.3-2-0.9-2-0.6-4 0-1.7-0.5-5.3-2.5-2.5-3.1-1.6-1.5-1.7-0.8-3.4-1-3.3-2.6-1.5-0.8-3.5-0.6-5.3-2.6-1.8-0.1-1.5 0.6-2.6 2.1-1.3 0.7-3.7 0.3-3.5-1.2-8.8-5.9-5.2-3.5-7.2-4.9-5-4.6-7-6.4-3.6-2.2-7.8-2.8-6.8-3.9-11.1-9.5-3-3.9-1.6-2.1-1.3-0.7-1.6 0.1-4.1 2.1-1.3 0.3-1.6-0.3-1.6-0.8-8.5-6.1-7.4-5.3-5.9-4.3-3.2-3.3-5.7-8-3.3-3.2-7.4-5.2-17.4-12.5-8.6-6.1-7.2-5.2-6.2-4.5-3.1-3.1-0.6-0.3-3.8-4.8-0.5-1.8-1-3.9-0.1-1.6 0.2-1.5 0.4-1.3 0.3-1.2-0.2-1.5-1.6-3.5-0.2-1.4-0.1-1.9-0.1-1.4-0.5-1.2-1.3-2.8-0.4-1.3-0.1-2.9-0.5-0.6-4.4-2.5-2.5-0.8-1.2-0.9-0.2-0.4-0.1-0.2-0.5-1.6-0.3-0.6-1.9-2.7-0.8-1.4-1-4.3-0.6-1-1.8-1.9-0.6-0.9-0.4-1.5-0.6-3.2-1.7-5.9-0.6-1.4 0.4-0.5-0.2-1-0.2-5-0.1-1.4-0.5-1.2-3.9-6.5-1-1.1-11.8-8.8-4.6-2-5.2-1.4-1.9-0.2-1.2 0.6-0.7 1.5-0.6 2.5-1.3 0.7-1 2.2-1.5 1.7-1.8 0.9-2 0.1-2.2-0.9-5.4-3.9-0.9 0-3.2 0.5-0.3-0.6-0.1-0.7-0.2-0.1-0.3 0.5-0.7 1.2-0.4 0.4-0.3 0.3-2.6-2.6-3.7-0.9-10.6 0.6-6.4 2.1-3.2 0.1-1.8-0.5-1.6-1.1-2.8-2.9-3.2-2.4-5.1-2.6-5.8-3-1.5-1.5-0.4-1.6 0.7-5.7 0.4-1.2 0.7-1 0.9-0.8 2.2-1.1 0.7-0.9-0.5-1.3-3.5-5-1.6-3.2-0.5-2.4 1.4-2 1.4-1 1.7-0.1 2 0.6 1.8 1.2 1 0.4 0.8-0.1 0.7-0.9-0.1-1-0.6-1-0.6-0.8-0.7-0.7-2.5-1.5-0.8-0.8-0.6-0.9-1.3-1.9-1.5-1.3-5.6-2.1-2.7 0.1-0.8-0.4-0.6-1 0.1-0.9 0.6-0.7 0.9-0.3 0.1 0 3.1-1.2-0.1-2.8-1.1-3.5 0.5-3.3 0.9-0.7 1.1-0.4 0.8-0.7 0.2-1.2-0.6-0.9-1.2-0.7-2.4-0.9-1.8-1.7-1.5-2.3-1.7-1.9-2.4-0.2-2.4 0.2-4.6-0.4-11.1 1.8-2.8-0.1-1.3-0.5-2.1-2.3-1.3-0.5-2.7-0.2-1.5-0.9-0.7-1.3-0.6-5.4-0.5-1.4-0.8-1.2-3.3-3.5-1.3-0.8-1.3 0.1-1.6 0.8-1.5 0.4-1.6 0.1-2.3-0.5-3.7-1.6-3.6-3.3-11.4-13.5-1.3-0.8-0.9 1.7-0.8 6.1-1.1 2.1-2.2 0.6-2.7-0.1-2.7-0.7-5.7-2.3-1.3 0-1 0.3-2.8 1.7-2 0.9-1 0.7-0.5 1.1 0.3 1.3 1 0.9 6.7 3.2 1.8 1.4 1.7 2.5 1.4 3.4 3.9 6.4 2.1 2.5 0.6 0.6 0.3 0.6-0.2 0.6-0.7 0.4-3.4 0.5-0.8-0.2-0.7-1 0.1-1.1 0.2-1.2 0.2-1.3-0.5-2.6-1.4-1.8-1.8-1.3-5.2-2.5-1.2-0.2-1 0.1-1.9 0.9-0.8 0-0.9-0.4-1.2-1.9-0.8-0.7-1-0.4-1.2 0-1.1 0.2-1 0.5-0.6 0.7-0.4 0.8-1.4 1.6-1.4 0.6-0.9 0.8 0.3 1.9 1.1 2.4 0.1 1.1-0.5 1.7-2.1 5-0.8 0.8-2 0.7-0.4 0.9 0.3 1.1 0.7 0.8 0.2 0.7-1.2 0.8-1 0.3-3.6-0.2-1 0.2-3 1.5-2.4 0.5-7.5-1.3-5.1 0.2-5 2.4-4.2 4.2-2.9 5.5-2 3-2.2 1.6-5.1 2.4-1.5 2.1 0 2.7 1.2 5.6-0.1 2.7-0.5 2.3 0 2.2 0.9 2.5 1.2 2 0.6 1.8 0.2 2.1 0 2.5 0.2 1.9 0.7 2 1 1.7 1.2 1.3 0.7 0.6 0.9 0.4 2.6 0.6 0.4 0.3-0.1 0.5-0.6 0.7-1.1 0.8-2.5 1.3-1 1.2-1.7 3-1 0.6-6.5-1.4-5-1-11.8-0.7-1.9-0.1-11-0.6-9.8-0.5-8.6-0.5 0-16.2 0-16.3 0-16.3 0-16.4-0.1-16.4 0-16.5 0-16.5 0-16.7 0-16.7 0-16.7 0-16.8 0-16.9 0-16.9 0-17 0-17.1 0-17.2 0-0.1 0-0.1 0.1 0 4.9-1.6 5-1.6 5-1.6 4.9-1.6 5-1.6 5-1.6 4.9-1.6 3.9-1.2 1.1-0.4 5-1.6 4.9-1.5 5-1.6 4.9-1.7 5-1.6 5-1.6 4.9-1.6 5-1.6 6.6-2 6.6-2 6.6-2.1 6.7-2 3-0.9 3.1-0.9 3-0.9 3.1-1 3.2-0.9 3.2-0.9 3.2-0.9 3.2-1 4.2-1.2 1.3 0.1 1.4 0.7 0.4 0.2-0.5 0.5-0.3 0.5-0.1 0.6-0.1 1.3-0.3 1.4-0.4 0.6-0.2 0.8 0 0.4 0 1.2-0.2 1.2 0 0.6-0.1 0.2 0.1 1.1-0.2 0.4-0.7 0.5-0.5 0.5-1.3 1.9-0.5 0.2-0.1 0.2-1 0.8-0.7 1.4-2 2.9-0.2 0.6-0.2 0.5-0.1 1.8 0.1 1.4-0.3 0.8-0.9 1.5-0.5 2.1-0.3 3.4-0.8 2-1.6 2-0.8 1.1 0 0.2-0.3 0.7-0.3 1.6 0 1-0.8 2-0.2 1.8-1 1.4-1.4 2.8 0 0.5-0.4 1-0.3 1.4-0.1 1.7 0.4 3.7 0.5 2.3 1 2.6 1.3 3.1 1.8 4.4 0.3 2.1-0.4 2.4-0.6 0.7-0.7-0.2-0.7-0.1-0.7 0.5-0.9 1.4-0.5 1.1-0.1 1.3 0 3.4 0.6 1.4 0.8 0.8 0.9 0.3 1.4 0.3 2.1 0 1.1-0.1 2.8-1.4 3.5-4.5 2.2-4.8 1.1-6.6 1.8-7.3-0.9-1.3 1.7 0 0.9-1.3 0.7-2.1-0.1-2.7-0.7-1.7-1.6-1.4-0.7-1.4 0.1-1.1 1-1.5 0.3-1.8-0.3-1.2-1-1.1-1.1-0.2 5.1-4.9 1.4-2.3 0.6-2 0.1-1.4-1.1-4.2-1.2-2.9-0.6-1.6 0-2.8 0.5-3.9 1.2-6.5 0.6-1.5 2-2 0.1-0.1 1.6 1.1 5.2 3.5 6.7 4.6 4.7 3.1 3.4 2.3 9.1 6.2 9.9 6.7 10.4 7 10.7 7.1 10.5 7.1 10.3 6.9 9.7 6.5 8.9 5.9 7.7 5.1 6.3 4.2 4.6 3.1 3.3 2.2 1.4 1.5 1 2 0.3 1.8 0.4 3.8 0.5 1.8 3.1 5 6.1 6.6 2.9 3.1 2.9 3.1 3.7 4.3 3 3.6 3.1 3.5 3 3.5 3 3.5 3 3.4 3 3.5 3 3.4 2.9 3.4 4 4.6 1.1 0.5 1 0.4 0.2 0 4.3-0.8 1.9-0.4 1.9-0.3 1.8-0.3 1.9-0.4 3-0.5 3-0.6 3-0.6 2.9-0.5 4.9-0.8 4.8-0.8 4.8-0.8 4.9-0.8 4.8-0.7 4.8-0.8 4.9-0.8 4.8-0.8 8.1 0.7 8 0.8 8.1 0.7 8.1 0.7 7.3 0.7 7.3 0.7 7.4 0.6 7.3 0.7 2.9 0.3 1-0.3 0.9-0.3 5.3-2.9 5.1-2.9 5.2-2.9 5.2-2.9 1-0.3 0.9-0.4 0.9 0.1 0.8 0.2 0.9 0.8 0.9 0.8 5.7 7.4 5.7 7.5 2.6 2.8 2.6 2.8 5.5 3.4 5.4 3.4 1.1 0.9 1 1 4.5 9.3 2.9 5.9 4 8.2 3.4 7 0.4 0.1 0.5 0 7.6-4.1 7.7-4.2-1.2 18-1.1 17.8-0.1 1.9-0.2 1.9-0.2 0.6-0.3 0.7-0.6 0.2-0.6 0.3-0.2 0.4-0.2 0.5 0 2.2-0.2 11.8-0.1 13.9 0 0.4 0.1 0.4 0.2 0.1 0.2 0.2 6.4 0 5.8 0.1 5.8 0 6.4 0 0.2 0 0.2 0 0.2 0 0.2 0 0.2 0 0.1 0.1 0.2 0 0.1 0.1 0.9 9 0.9 9 1.7 8.7 1.7 8.8 2.3 10.4 2.2 10.3 1.2 1.5 1.2 1.4 1.3 0.4 0.9 0.2 2.2 0.6 6.1-0.4 5.2-0.3 7.7-0.5 5.7-0.3 6.7-0.4 4.3-0.3 6.9-0.4 6.8-0.4 0.6 0.2 0.6 0.1 1.1 0.6 1.1 0.6 0.6 0.2 0.5 0.2 0.6-0.1 0.5 0 1.5-1.1 1.5-1 0.7-0.4 0.7-0.4 0.3 1 0.3 1 0.1 0 0 0.1 0.2 0.3 0.2 0.4 1.2 1.6 1.1 1.5 0.3 0.6 0.3 0.7 0.2 1.3 0.2 1.4 0.4 0.6 0.3 0.5 0.3-0.2 0.3-0.3 0.4-0.2 0.3-0.1 0.3 0 0.4 0.1 0.3 0.4 0.2 0.3 0.4-0.8 0.4-0.7 0.5-0.1 0.6-0.1 0.1 0.8 0.1 0.7 0 0.1 0 0.1-0.1 0.3 0 0.3 0.2 0.1 0.3 0.1 0.1 0.1 0 0.1-0.6 0.4-0.6 0.5-0.2 0.1-0.2 0.1 0.2 0.1 0.2 0.1 0.1 0.2 0.2 0.1 0.2 0.5 0.2 0.4 0 1 0 1-0.3 1.1-0.2 1.2-0.4 1.2-0.4 1.1-0.4 0.9-0.4 0.9-0.3 0.5-0.3 0.5-0.4 0.4-0.4 0.4-0.4 0.4-0.5 0.3-0.9 0.5-1 0.4-0.2 0.2-0.2 0.2-0.1 0.3-0.1 0.3 0.2 0.1 0.2 0.1 1 0.2 1 0.3 0.9 0.4 0.8 0.5 2.4 2.4 2.4 2.4 1.8 1.4 1.8 1.4 2.1 1.1 4.1 2.2 6.2 3.3 0.1-0.2 0.1-0.2 0.3-0.3 0.4-0.3 0.4 0 0.4 0 0.2-0.2 0.2-0.3 0.1-0.3 0.1-0.3 0.3-0.2 0.2-0.1 0.3 0 0.4 0.1 1 0.5 1.1 0.5 0.7 0.1 0.7 0.1 0.5-0.3 0.6-0.3 0.2-0.5 0.1-0.4-0.5-0.3-0.5-0.3 0.7-1 0.6-1.1 0-0.2 0.1-0.3-0.2-0.4-0.3-0.4-0.1-0.4-0.2-0.4-0.1-0.5-0.1-0.4 0-0.4 0-0.5-0.6-0.1-0.7-0.2-0.2-0.1-0.3-0.2-0.2-0.3-0.2-0.2-0.2-0.7-0.2-0.7-0.3-2.9-0.2-2.9 0.1-0.6 0.1-0.5 0.1-0.2 0.2-0.1 0.1-0.2 0.2-0.1 0.2-0.4 0.2-0.4 0-0.3 0-0.4 0-0.8-0.1-0.7 0-0.4 0-0.4 0.1 0.1 0.1 0 0.3 0.1 0.2 0.1 0.2 0.1 0.1 0.1 0.3-0.8 0.3-0.9 0.7-0.5 0.7-0.5 1.2-0.5 0.5-0.2 1.6-0.7 0.5-0.7 0.5-0.6 1-2.8 1-2.8 0.7-0.9 0.7-0.8 1.9-0.8 1.8-0.8 0.6-1.1 0.7-1.2 0.3-0.4 0.4-0.5 0.5-0.2 0.6-0.2 1.1-0.1 1.1-0.1 1-0.5 1-0.5 0.9-0.6 0.9-0.6 0.4-0.5 0.5-0.4 0.2-0.4 0.2-0.4 0.4-3.4 0.4-3.3 0-0.6 0-0.6-0.1-0.4-0.1-0.4 0-0.2-0.1-0.1-0.1-0.1-0.2-0.1-0.2-0.3-0.3-0.3 0-0.3-0.1-0.3 0.1-0.2 0.1-0.3 0.3-0.2 0.2-0.1 1.2-0.6 1.2-0.6 0.5-0.2 0.5-0.2 0.5 0.2 0.5 0.2 0.3-0.7 0.2-0.7 0.7-0.7 0.6-0.6 1.5-0.9 1.4-1 0.5 0 0.4-0.1 0.8 0.3 0.7 0.2 0.4 0 0.4-0.1 1-0.6 1.1-0.7 0.4-0.1 0.4-0.1 1.5 0.3 1.6 0.3 0.3-0.2 0.3-0.2 0-0.4 0-0.3-0.5-0.8-0.4-0.9-0.1-0.3-0.1-0.4 0.3-0.9 0.4-1 0.7-0.5 0.7-0.5 1.5-0.5 1.5-0.4 2.7-2.2 2.7-2.1 0.7-0.9 0.8-0.9 0.4-0.3 0.5-0.4 3.6-1 3.5-1 3-0.1 2.9-0.1 1.1-0.5 1.1-0.4 0.8-1 0.8-1 0.4-0.5 0.4-0.5 0.4-0.4 0.4-0.3 1.5-0.6 1.4-0.5 2.2-1.6 2.2-1.7 0.7-0.8 0.7-0.7 1.8-3.2 1.8-3.1 0.4-0.4 0.3-0.4 0.5-0.2 0.4-0.3 0.5-0.2 0.5-0.1 0.4-0.3 0.5-0.2 0.3-0.4 0.3-0.4 0.2-0.6 0.2-0.6 0.7-1.5 0.6-1.4 1.2-1 1.1-1 2.6-1.1 2.6-1.1 0.4 0 0.4 0.1 0.4 0.4 0.5 0.3 0.4 0.5 0.5 0.5 0.2 0.4 0.2 0.5 0.1 0.7 0.2 0.6 0.4 0.5 0.4 0.4 0.6 0.2 0.6 0.2 0.6 0.1 0.6 0.1 0.8-0.4 0.9-0.4 0.5-1.1 0.6-1 0.5-1.3 0.5-1.3 0.6-1.2 0.6-1.1 0.7-0.9 0.8-0.9 0.3-0.5 0.2-0.5 0.3-0.6 0.2-0.7 0.4-0.5 0.3-0.5 0.7-0.1 0.6 0 1.2 0.4 1.3 0.3 1-0.1 1-0.2 1-0.5 0.9-0.5 1.8-1.5 1.8-1.5 1.2-1.1 2.3-1.7 1.7-0.2 1.7 0.7 7.4 5.3 1.7 0.6 0.2 0.1-0.8 2.6-2 1.4-4.3 1.3-7.5 5.6-2.2 0.5-2.6-0.1-2.2 0.6-0.9 2.6-0.2 4.1-0.5 1.2-1.9 0.7-5.3 0.6-1.6 1-5.2 4.5-2.3 2.7-1.6 3.3-1.2 1.9-1.6 1.1-1.7 0.8-3.2 2.5-8.6 5.1-1.1 1.8 1 2.3 1.9 1 7.5 0.9 2 1.2 0.9 0.8 0.8 1 1.3 2.5 0.8 0.7 0.9 0 0.3 0.1 1.8-0.7 6.5-3.8 1.8-0.3 1 0.7 0.9 1.2 3 5.1 0.5 1.5 0.1 1.5-0.8 4.3 0.1 1.2 0.6 1 0.9-0.2 1-0.5 1.2-0.1 1 0.5 1 0.6 0.9 0.9 0.7 1.1 1 0.9 1 0.1 2.3-0.4 2.5 0.5 1.2 0.5 1.1 0.9 0.9 0.6 2 0.2 0.9 0.7 1.3 2.3 0.8 0.5 0.6-1.3-0.2-1.5-0.2-1.3 0.1-0.9 1.1-0.6 1.3 0.1 0.6 0.8 0.6 2.7 0.5 1 0.7 0.7 0.7-0.1 0.6-1.3 1.3-1.7 3.6 3.1 1.2-1 0.3-2.5-0.5-12.1 0.4-0.9 0.7 0.2 2.5 2.4 2.3 1 1.8-0.4 1.5-1.5 1.8-3.8 0.7-2.4 0.2-1.4-0.2-1.3-1.4-1.9-0.6-1.2 1.1-2.7 0.6-0.8 1.2-0.5 1.1 0.2 0.7 0.9 0.3 1.4 0 1.5-1 3.9 0.1 0.9 0.5 0.2 0.3-0.6 0.2-0.8 0.3-0.4 0.5 0.3 0.3 1.1 0.5 0.2 0.4-0.3 0.1-1.5 0.3-0.3 0.5 0.2 0.4 0.3 4.9 7.5 0.9 2.1 0.3 2.3-0.1 3 0.2 3 1.4 0.6 4.2-0.7 1.3 1.1 0.8 1.1 0.9 0.5 1.6-0.9 1.2-1.1 1.2-0.8 1.3-0.2 1.3 0.8 0.6 1.4 0.3 1.9 0.1 2 0.5 3.7 0 1.4-0.4 1.2-0.7 1.7 1.6-0.5 3-0.9 2-0.3 0.4-0.3 0.6-1.9 0.3-0.5 0.9-0.8 0.7 0.5 1.6 2.4 1.1 0.7 1.5 0.4 2.8 0.3 0.3 0.2 0.1 0.3 0 0.4-0.1 0.4 0 1.6 1 0.5 1.3 0.1 1 0.4 2.3 3.5 1.6 1.8 2.1 0.9 2.3 0.3 6.8-0.6 2 0.6 0.3 2-0.2 1.2 0.7-0.1 2.4-1.8 4-1.8 0.8 0.6 0.7 1 1.1 0.8 3.1-0.2 1.2 0.3 0.5 0.1 0.2 1.4-1.6 2.1-2.5 1.5-5 1.8-4.5 2.9-3.8 0.9-1.9 0.8-1.2 2-0.6 4.6-1.6 0.8-1.9-0.9-1 0-0.4 1.1-0.1 1-0.2 1-0.5 0.9-0.9 0.6-2.1 0.2-3.7-2.6-2-0.3-1.5-0.7-1.8-2.1-1.8-1.5-1.5 0.7-0.2 1.1 1.1 1.9 0 0.1 0 1.2-0.3 1.1 0 0.8 0.4 0.6 2.3 1.7 0.3 0.6 0.3 0.8-0.1 1.6-0.5 1.8-1.1 1.5-1.2 0.2-1.5-0.5-3.1-1.9-0.8-0.2-2.4 0.1-0.7-0.3 0.3-0.6 0.6-0.2 0.9-0.1 0.8-0.2 0.2-0.7-0.5-0.4-1-0.1-0.4 0-2.4 0.1-0.9 0.2-3.5 2-0.5 0.7-0.3 1.3-0.8 2-1.4 1.3-4.6 2.4-0.3 1 0.4 1 1 0.7 1.6 0.8 0.3 0.2 0.4 0.2 0.3 0.6-0.4 0.7-0.7 0.2-0.8-0.1-0.7-0.3-0.4-0.1-0.3 0.1-0.6 0.2-2.1-0.2-2.1-0.5-1.9 0.1-1.7 1.7-0.9 2.2-0.6 0.9-0.9 0.8-2.8 1.7-0.7 0.2-1.1-0.5-0.3-1 0-2.9-0.4-1.4-0.7-1.6-0.9-0.8-1 0.9-0.3 1.3-0.1 1.2-0.5 0.8-1.3 0.1-2.5-0.4-1.2-0.5-1.1-0.7-1-1-0.4-1-0.5-0.8-2.4-0.8-1.7-1.5-1-0.1-1.7 0.2-0.9-0.1-0.7-0.3-0.6-0.7-0.4-0.7-0.6-0.4-0.7 0.2-0.8 1.3-0.5 1.5-0.8 1.2-1.6 0.2-6.2-0.9-3.1 0.5-1.9 1.9z m-20.8-54.4l-0.8 0.3 0.6 1.4 0 0.1 0.9 0.9 1.6 2.1 0.9 0.8 1 0.3-0.1-1.2-0.7-1.7-0.7-1.2-1.2-1.1-1.5-0.7z m32.4 68l0.2 0 0.6-0.5 0.3-0.2 1.3-0.3 0.7 0.1 0.4 0.6-0.3 1.1-2.5 1.7-0.9 0.9 0.2 1.8 2.3 2.5-0.1 2.1-0.6 0.8-0.7 0.3-1.8 0-2.5 0.7-0.8-0.1-0.6-0.5-0.1-0.8-0.3-0.6-1 0-0.6 0.4-0.7 0.7-0.7 0.5-0.7-0.4-0.1-1.7 2.3-3.6-0.3-2-0.6-0.5-1.4-0.3-0.7-0.4-0.6-0.8-1.3-2.9-0.3-1.1 0.1-1.2 0.3-1.2 0.9-2.2 1.7-0.9 1.2 0.8 0.8 1.7 0.8 1.9 0.9 1.1 1.4 1 3 1.2 0.2 0.2 0.2 0.1 0.4 0z" id="UZ" name="Uzbekistan">
  </path>
 </g>
 <g id="points">
  <circle class="37.60382601261503|56.83447872361361" cx="90.9" cy="593.7" id="0">
  </circle>
  <circle class="40.95325463490545|65.42087970151178" cx="545.5" cy="364.6" id="1">
  </circle>
  <circle class="45.14004041276847|72.29000048383031" cx="909.1" cy="61.1" id="2">
  </circle>
 </g>
 <g id="label_points">
  <circle class="Uzbekistan" cx="470.5" cy="312.4" id="UZ">
  </circle>
 </g>
</svg>